<svg width="115" height="64" viewBox="0 0 115 64" fill="none" xmlns="http://www.w3.org/2000/svg">
<path d="M54.66 39V25H57.9V36.36H64.92V39H54.66ZM73.2959 39.24C72.1893 39.24 71.1626 39.06 70.2159 38.7C69.2826 38.34 68.4693 37.8333 67.7759 37.18C67.0959 36.5267 66.5626 35.76 66.1759 34.88C65.8026 34 65.6159 33.04 65.6159 32C65.6159 30.96 65.8026 30 66.1759 29.12C66.5626 28.24 67.1026 27.4733 67.7959 26.82C68.4893 26.1667 69.3026 25.66 70.2359 25.3C71.1693 24.94 72.1826 24.76 73.2759 24.76C74.3826 24.76 75.3959 24.94 76.3159 25.3C77.2493 25.66 78.0559 26.1667 78.7359 26.82C79.4293 27.4733 79.9693 28.24 80.3559 29.12C80.7426 29.9867 80.9359 30.9467 80.9359 32C80.9359 33.04 80.7426 34.0067 80.3559 34.9C79.9693 35.78 79.4293 36.5467 78.7359 37.2C78.0559 37.84 77.2493 38.34 76.3159 38.7C75.3959 39.06 74.3893 39.24 73.2959 39.24ZM73.2759 36.48C73.9026 36.48 74.4759 36.3733 74.9959 36.16C75.5293 35.9467 75.9959 35.64 76.3959 35.24C76.7959 34.84 77.1026 34.3667 77.3159 33.82C77.5426 33.2733 77.6559 32.6667 77.6559 32C77.6559 31.3333 77.5426 30.7267 77.3159 30.18C77.1026 29.6333 76.7959 29.16 76.3959 28.76C76.0093 28.36 75.5493 28.0533 75.0159 27.84C74.4826 27.6267 73.9026 27.52 73.2759 27.52C72.6493 27.52 72.0693 27.6267 71.5359 27.84C71.0159 28.0533 70.5559 28.36 70.1559 28.76C69.7559 29.16 69.4426 29.6333 69.2159 30.18C69.0026 30.7267 68.8959 31.3333 68.8959 32C68.8959 32.6533 69.0026 33.26 69.2159 33.82C69.4426 34.3667 69.7493 34.84 70.1359 35.24C70.5359 35.64 71.0026 35.9467 71.5359 36.16C72.0693 36.3733 72.6493 36.48 73.2759 36.48ZM90.1309 39.24C89.0243 39.24 88.0043 39.0667 87.0709 38.72C86.1509 38.36 85.3443 37.8533 84.6509 37.2C83.9709 36.5467 83.4376 35.78 83.0509 34.9C82.6776 34.02 82.4909 33.0533 82.4909 32C82.4909 30.9467 82.6776 29.98 83.0509 29.1C83.4376 28.22 83.9776 27.4533 84.6709 26.8C85.3643 26.1467 86.1776 25.6467 87.1109 25.3C88.0443 24.94 89.0709 24.76 90.1909 24.76C91.4309 24.76 92.5443 24.9667 93.5309 25.38C94.5309 25.7933 95.3709 26.3933 96.0509 27.18L93.9709 29.1C93.4643 28.5667 92.9109 28.1733 92.3109 27.92C91.7109 27.6533 91.0576 27.52 90.3509 27.52C89.6709 27.52 89.0509 27.6267 88.4909 27.84C87.9309 28.0533 87.4443 28.36 87.0309 28.76C86.6309 29.16 86.3176 29.6333 86.0909 30.18C85.8776 30.7267 85.7709 31.3333 85.7709 32C85.7709 32.6533 85.8776 33.2533 86.0909 33.8C86.3176 34.3467 86.6309 34.8267 87.0309 35.24C87.4443 35.64 87.9243 35.9467 88.4709 36.16C89.0309 36.3733 89.6443 36.48 90.3109 36.48C90.9509 36.48 91.5709 36.38 92.1709 36.18C92.7843 35.9667 93.3776 35.6133 93.9509 35.12L95.7909 37.46C95.0309 38.0333 94.1443 38.4733 93.1309 38.78C92.1309 39.0867 91.1309 39.24 90.1309 39.24ZM92.8309 37.04V31.78H95.7909V37.46L92.8309 37.04ZM105.601 39.24C104.494 39.24 103.467 39.06 102.521 38.7C101.587 38.34 100.774 37.8333 100.081 37.18C99.4006 36.5267 98.8673 35.76 98.4806 34.88C98.1073 34 97.9206 33.04 97.9206 32C97.9206 30.96 98.1073 30 98.4806 29.12C98.8673 28.24 99.4073 27.4733 100.101 26.82C100.794 26.1667 101.607 25.66 102.541 25.3C103.474 24.94 104.487 24.76 105.581 24.76C106.687 24.76 107.701 24.94 108.621 25.3C109.554 25.66 110.361 26.1667 111.041 26.82C111.734 27.4733 112.274 28.24 112.661 29.12C113.047 29.9867 113.241 30.9467 113.241 32C113.241 33.04 113.047 34.0067 112.661 34.9C112.274 35.78 111.734 36.5467 111.041 37.2C110.361 37.84 109.554 38.34 108.621 38.7C107.701 39.06 106.694 39.24 105.601 39.24ZM105.581 36.48C106.207 36.48 106.781 36.3733 107.301 36.16C107.834 35.9467 108.301 35.64 108.701 35.24C109.101 34.84 109.407 34.3667 109.621 33.82C109.847 33.2733 109.961 32.6667 109.961 32C109.961 31.3333 109.847 30.7267 109.621 30.18C109.407 29.6333 109.101 29.16 108.701 28.76C108.314 28.36 107.854 28.0533 107.321 27.84C106.787 27.6267 106.207 27.52 105.581 27.52C104.954 27.52 104.374 27.6267 103.841 27.84C103.321 28.0533 102.861 28.36 102.461 28.76C102.061 29.16 101.747 29.6333 101.521 30.18C101.307 30.7267 101.201 31.3333 101.201 32C101.201 32.6533 101.307 33.26 101.521 33.82C101.747 34.3667 102.054 34.84 102.441 35.24C102.841 35.64 103.307 35.9467 103.841 36.16C104.374 36.3733 104.954 36.48 105.581 36.48Z" fill="white"/>
<g clip-path="url(#clip0_1_52)">
<path d="M18.5219 0C8.29537 0 0 8.44103 0 18.8472V45.1975C0 55.6036 8.29537 64.0447 18.5219 64.0447C28.7485 64.0447 37.0439 55.6036 37.0439 45.1975V18.8472C37 8.44103 28.7046 0 18.5219 0ZM35.5516 45.1975C35.5516 54.7551 27.9146 62.5262 18.5219 62.5262C9.1293 62.5262 1.49229 54.7551 1.49229 45.1975V18.8472C1.49229 9.2896 9.1293 1.51849 18.5219 1.51849C27.9146 1.51849 35.5516 9.2896 35.5516 18.8472V45.1975Z" fill="white"/>
<path d="M12.7725 22.42L24.7108 36.8904L31.8211 28.2707L26.0275 22.42H12.7725ZM23.9646 23.8939L19.6194 28.3154L15.9765 23.8939H23.9646ZM24.7108 34.5233L20.5411 29.4766L25.7203 24.2065L29.7582 28.3154L24.7108 34.5233Z" fill="white"/>
<path d="M5.22314 28.2708L18.5221 44.4383L23.5695 38.3197L10.7095 22.6881L5.22314 28.2708ZM18.5221 42.0712L7.19823 28.3601L10.5778 24.9212L21.5944 38.3197L18.5221 42.0712Z" fill="white"/>
</g>
<defs>
<clipPath id="clip0_1_52">
<rect width="37" height="64" fill="white"/>
</clipPath>
</defs>
</svg>
